# xmcd
#
# Track frame offsets:
#	150
#	17612
#	39149
#	59227
#	76554
#	94028
#	113427
#	132620
#	147794
#	165807
#	182180
#	198990
#	212600
#	224424
#	240408
#	255569
#	275001
#	291202
#	303132
#	316830
#
# Disc length: 4376 seconds
#
# Revision: 0
# Processed by: cddbd v1.5.2PL0 Copyright (c) Steve Scherf et al.
# Submitted via: EasyCDDAExtractor 15.3.0.1
#
DISCID=0e111614
DTITLE=Baruni - Zlatna Kolekcija
DYEAR=2012
DGENRE=Country
TTITLE0=KADA SAVA KRENE PREMA BRODU ( P ) 1997.
TTITLE1=DOBRO MI DOŠLA STARA LJUBAVI ( P ) 1998.
TTITLE2=JER LJUBAV NIJE ZA MENE ( P ) 1998.
TTITLE3=PADA SNIJEG, ANA ( P ) 1996.
TTITLE4=BALADA O VRANCU  [ Putuju i Oblaci ] ( P ) 1996.
TTITLE5=ZAGRLI ME SREĆO ( P ) 1999.
TTITLE6=HRVATSKI RATNIK ( P ) 1999.
TTITLE7=PLAVA BALADA ( P ) 1996.
TTITLE8=DOBILA SI ŠTO SI TRAŽILA ( P ) 1997.
TTITLE9=A TEBE MOLIM, VRATI SE ( P ) 1997.
TTITLE10=STARA STVAR ( P ) 1998.
TTITLE11=ODLAZIM ( P ) 1996.
TTITLE12=SA MNOM NITKO NEĆE ZAPJEVATI  ( P ) 1996.
TTITLE13=KAD BI MOJA BILA ( P ) 1999.
TTITLE14=NE PITAM TE NIŠTA ( P ) 1997.
TTITLE15=NEMA VIŠE MOJE MARIJANE ( P ) 1997.
TTITLE16=OD KAD SI OTIŠLA S NJIM ( P ) 1997.
TTITLE17=LAKU NOĆ ( P ) 1997.
TTITLE18=ZBOG TVOJE NEVJERE ( P ) 1998.
TTITLE19=ZAPLAKAT ĆEŠ TI  ( P ) 1998.
EXTD=
EXTT0=
EXTT1=
EXTT2=
EXTT3=
EXTT4=
EXTT5=
EXTT6=
EXTT7=
EXTT8=
EXTT9=
EXTT10=
EXTT11=
EXTT12=
EXTT13=
EXTT14=
EXTT15=
EXTT16=
EXTT17=
EXTT18=
EXTT19=
PLAYORDER=
